<?xml version="1.0" standalone="no"?>
<!DOCTYPE svg PUBLIC "-//W3C//DTD SVG 20010904//EN"
 "http://www.w3.org/TR/2001/REC-SVG-20010904/DTD/svg10.dtd">
<svg version="1.0" xmlns="http://www.w3.org/2000/svg"
 width="360.000000pt" height="360.000000pt" viewBox="0 0 360.000000 360.000000"
 preserveAspectRatio="xMidYMid meet">

<g transform="translate(0.000000,360.000000) scale(0.100000,-0.100000)"
fill="#000000" stroke="none">
<path d="M2329 3016 c-96 -67 -181 -146 -205 -188 -8 -14 -16 -15 -49 -8 -22
5 -87 12 -145 16 -281 18 -558 -75 -773 -259 -32 -27 -56 -51 -55 -53 2 -1 30
4 63 12 33 7 84 14 113 14 l52 0 -95 -65 c-287 -194 -474 -397 -541 -587 -7
-21 -12 -38 -10 -38 2 0 33 17 69 38 64 37 143 69 151 61 2 -2 -10 -44 -27
-94 -30 -86 -31 -98 -32 -245 0 -177 15 -249 85 -397 133 -284 369 -480 720
-598 125 -42 316 -84 421 -92 l75 -6 18 79 c24 106 31 246 17 330 -14 82 -43
147 -100 231 -148 217 -203 501 -128 655 25 50 106 138 127 138 5 0 55 -46
111 -103 108 -107 181 -155 271 -177 44 -11 48 -15 63 -61 33 -97 107 -140
206 -120 127 27 182 92 182 215 1 79 -14 122 -68 201 -19 28 -57 113 -86 190
-64 174 -173 404 -223 468 -27 36 -40 65 -47 105 -12 75 -12 238 1 281 5 19 8
36 7 37 -2 2 -26 -15 -55 -36 -29 -22 -54 -40 -56 -40 -11 0 18 120 35 143 11
15 18 27 16 27 -3 0 -51 -33 -108 -74z"/>
</g>
</svg>
